<?xml version="1.0" standalone="no"?>
<!DOCTYPE svg PUBLIC "-//W3C//DTD SVG 20010904//EN"
 "http://www.w3.org/TR/2001/REC-SVG-20010904/DTD/svg10.dtd">
<svg version="1.0" xmlns="http://www.w3.org/2000/svg"
 width="200.000000pt" height="200.000000pt" viewBox="0 0 200.000000 200.000000"
 preserveAspectRatio="xMidYMid meet">
<metadata>
Created by potrace 1.11, written by Peter Selinger 2001-2013
</metadata>
<g transform="translate(0.000000,200.000000) scale(0.100000,-0.100000)"
fill="#000000" stroke="none">
<path d="M748 1688 l-3 -63 -122 0 -123 0 0 -62 0 -62 -62 -3 -63 -3 -1 -110
c-1 -60 -2 -116 -3 -122 -1 -9 -20 -13 -61 -13 l-60 0 0 -250 0 -249 63 -3 62
-3 0 -122 0 -123 62 0 63 0 0 -63 0 -62 123 0 122 0 3 -63 3 -62 249 0 250 0
0 60 c0 33 5 61 10 61 6 1 61 2 123 3 l112 1 3 62 3 62 62 3 62 3 0 120 0 120
63 3 62 3 0 249 0 250 -59 0 c-38 0 -60 4 -63 13 -3 6 -4 63 -3 125 l1 112
-63 0 -62 0 -3 63 -3 62 -110 1 c-60 1 -116 2 -122 3 -9 1 -13 20 -13 61 l0
60 -250 0 -249 0 -3 -62z"/>
</g>
</svg>
